<?xml version="1.0" encoding="UTF-8" standalone="no"?>
<svg
   id="Calque_1"
   version="1.1"
   viewBox="0 0 168.80001 144.09999"
   sodipodi:docname="logo-rocq-orange_white.svg"
   width="168.8"
   height="144.09999"
   inkscape:version="1.4.2 (f4327f4, 2025-05-13)"
   xmlns:inkscape="http://www.inkscape.org/namespaces/inkscape"
   xmlns:sodipodi="http://sodipodi.sourceforge.net/DTD/sodipodi-0.dtd"
   xmlns="http://www.w3.org/2000/svg"
   xmlns:svg="http://www.w3.org/2000/svg">
  <sodipodi:namedview
     id="namedview5"
     pagecolor="#ffffff"
     bordercolor="#666666"
     borderopacity="1.0"
     inkscape:showpageshadow="2"
     inkscape:pageopacity="0.0"
     inkscape:pagecheckerboard="0"
     inkscape:deskcolor="#d1d1d1"
     inkscape:zoom="4.3163703"
     inkscape:cx="93.828835"
     inkscape:cy="67.76527"
     inkscape:current-layer="Calque_1" />
  <!-- Generator: Adobe Illustrator 29.1.0, SVG Export Plug-In . SVG Version: 2.1.0 Build 142)  -->
  <defs
     id="defs1">
    <style
       id="style1">
      .st0 {
        fill: #fffdfd;
      }

      .st1 {
        fill: #ff540a;
      }
    </style>
  </defs>
  <path
     class="st1"
     d="m 144.5,95.699992 c -7.2,-5.199995 -15.4,-7.799995 -24.4,-7.799995 -9,0 -22.1,4.799995 -31.7,14.399993 l -41.8,41.8 c -10.7,-7.1 -19.2,-16.5 -25.5,-28 -6.3,-11.5 -9.5,-23.999993 -9.5,-37.29999 0,-13.3 1.6,-18.2 4.9,-27.4 h 59.9 v -8.699999 h -62 C 10.5,37.3 7.5,31.6 5.1,25.4 H 76.4 V 16.8 H 2.5 C 1.1,11.5 0.3,5.9000005 0,0 l 90.2,0.2 c 14.3,0 27.4,3.5000005 39.4,10.6 12,7.1 21.6,16.6 28.6,28.600001 7.1,12 10.6,25.2 10.6,39.5 0,14.299992 -3.1,25.799989 -9.3,37.299989 -2.9,-8.4 -7.9,-15.2 -15.1,-20.399997 v 0 z m -8.4,-36.499991 c 1.7,-1.700001 2.6,-3.8 2.6,-6.3 0,-2.5 -0.9,-4.600001 -2.6,-6.3 C 134.4,44.900001 132.3,44 129.8,44 c -2.5,0 -4.6,0.900001 -6.3,2.600001 -1.7,1.7 -2.6,3.8 -2.6,6.3 0,2.5 0.9,4.599999 2.6,6.3 1.7,1.7 3.8,2.599999 6.3,2.599999 2.5,0 4.6,-0.9 6.3,-2.599999 z"
     id="path1" />
</svg>
